<svg xmlns="http://www.w3.org/2000/svg" width="19" height="21" viewBox="0 0 19 21">
    <g fill="none" fill-rule="evenodd" transform="translate(1)">
        <path stroke="#999" stroke-width="1.7" d="M7.811 20.455s.739-1.023 2.046-1.023c1.306 0 2.045 1.023 2.045 1.023"/>
        <circle cx="14.318" cy="4.5" r="1" fill="#999"/>
        <path stroke="#999" stroke-width="1.7" d="M9 18c2.65 0 5.087-3.134 2.455-6.545"/>
        <path fill="#999" d="M15.545 6.545V4.091s2.14.186 2.455 2.454h-2.455z"/>
        <circle cx="13.091" cy="1.636" r="1.636" fill="#999"/>
        <circle cx="15.136" cy="2.045" r="1.227" fill="#999"/>
        <circle cx="11.045" cy="2.045" r="1.227" fill="#999"/>
        <path stroke="#999" stroke-width="1.7" d="M2.077 8.077s1.434 1.628 1.78 3.378c5.324 0 7.598-3.496 7.598-6.546a2.454 2.454 0 1 1 4.909 0c0 1.724-1.656 2.515-2.455 2.975 0 0 1.636 2.064 1.636 4.992 0 2.954-2.07 5.124-6.288 5.124-3.453 0-5.715-5.59-5.715-5.59C2.014 10.384.05 10.602.05 10.602"/>
    </g>
</svg>
